<svg width="27" height="35" viewBox="0 0 27 35" fill="none" xmlns="http://www.w3.org/2000/svg">
<path d="M13.7042 1.06177C13.7335 1.0391 13.8447 1.20664 13.9171 1.27563C14.1773 1.52748 14.522 1.65134 14.8467 2.17798C14.872 2.22018 14.9917 2.15325 15.3682 2.21313C15.7447 2.27308 16.0742 2.69037 16.1573 2.79028C16.2433 2.89063 16.3546 2.88501 16.3546 2.88501L16.5352 2.9104L17.1915 2.92212C17.1915 2.92212 17.4902 2.86714 17.6622 2.93481C17.7826 2.982 18.182 3.25846 18.0001 3.36353C17.8726 3.43728 17.7524 3.27555 17.6368 3.26782C17.5003 3.25864 17.441 3.28522 17.3194 3.31665C17.0644 3.38273 16.5173 3.55421 16.7159 3.62329C16.7303 3.62923 16.7576 3.63382 16.7589 3.63403L16.8565 3.65161C16.8565 3.65161 17.097 3.70873 17.2423 3.76782C17.4614 3.85761 17.5653 3.95667 17.7667 4.07935C17.8822 4.14842 17.9337 4.21697 18.0596 4.2561C18.175 4.29056 18.2489 4.25694 18.3673 4.27759C18.5229 4.30603 18.6106 4.33887 18.753 4.40942C18.9648 4.51459 19.0418 4.64227 19.2315 4.78345C19.3262 4.85472 19.4065 4.86551 19.4776 4.96118C19.494 4.98264 19.5083 4.99452 19.5157 5.01978C19.5407 5.10711 19.3755 5.05573 19.2882 5.04126C19.1919 5.02435 19.1515 4.97505 19.0626 4.93286C18.9309 4.86844 18.8683 4.79757 18.7247 4.77075C18.6211 4.75008 18.5588 4.76662 18.4522 4.77271C18.3484 4.7773 18.2934 4.79367 18.1895 4.79517C18.0132 4.79825 17.9137 4.78211 17.7403 4.74438C17.546 4.70226 17.4495 4.6238 17.2569 4.58228C17.0389 4.5354 16.6535 4.342 16.6905 4.5354C16.7094 4.62578 16.9037 4.70226 16.9141 4.7063C16.9141 4.7063 17.0552 4.78458 17.1885 4.84595C17.3209 4.90535 17.3954 4.99586 17.3966 4.99731L17.4883 5.0686C17.4934 5.07582 17.5869 5.20725 17.7081 5.35571C17.8296 5.50624 18.046 5.5022 18.046 5.5022C18.0517 5.50223 18.1828 5.50322 18.4581 5.56177C18.7383 5.6217 19.0274 5.80103 19.0274 5.80103C19.0274 5.80103 19.2456 5.95663 19.3731 6.11255C19.4983 6.26762 19.4269 6.34608 19.4102 6.36255C19.3955 6.37942 19.4006 6.37146 19.3829 6.37915C19.3675 6.38582 19.211 6.18286 19.211 6.18286L19.0987 6.08423C19.0987 6.08423 18.9889 6.00392 18.8467 5.9563C18.7044 5.90948 18.6563 5.94067 18.6563 5.94067C18.6477 5.94315 18.3499 6.02833 18.0899 6.02075C17.8292 6.01297 17.6924 5.90454 17.6924 5.90454L17.5264 5.78931C17.5154 5.77867 17.2774 5.55052 17.2686 5.66235C17.2627 5.73989 17.379 5.82544 17.379 5.82544C17.3809 5.8274 17.459 5.90968 17.5118 5.96216C17.6126 6.06496 17.6541 6.11729 17.7696 6.22388C17.8853 6.33148 17.9571 6.3313 17.9571 6.3313C17.962 6.33249 18.0203 6.34634 18.043 6.35083C18.0669 6.35545 18.1085 6.36743 18.1085 6.36743C18.1128 6.36918 18.1568 6.38655 18.3272 6.45825C18.5066 6.53342 18.7012 6.69751 18.7012 6.69751C18.7028 6.69882 18.72 6.7128 18.7452 6.71802C18.7718 6.72111 18.826 6.74858 18.8409 6.75317C18.8574 6.7569 18.9037 6.75743 19.0069 6.77271C19.1118 6.78897 19.0714 6.85767 19.0714 6.85767L19.0538 6.88403L18.9678 6.9436C18.9678 6.9436 18.857 6.97688 18.7813 6.98071C18.7066 6.98516 18.6013 6.94329 18.5948 6.94067L18.3614 6.84985C18.3538 6.84778 18.1249 6.78593 18.0753 6.77759C18.025 6.76991 17.8161 6.72595 17.7794 6.71802C17.7452 6.70963 17.6395 6.67043 17.6114 6.65356C17.5831 6.63751 17.5308 6.62719 17.4034 6.56274C17.2775 6.49832 17.2272 6.4238 17.0704 6.37231C16.9118 6.32012 16.815 6.30861 16.6964 6.3938C16.4918 6.53958 17.0046 6.56372 17.2598 6.69556C17.6365 6.88751 17.8486 7.02915 17.9376 7.23657C18.026 7.43996 18.1144 7.5165 18.1182 7.51978C18.1182 7.51978 18.3834 7.65803 18.502 7.80298C18.5673 7.88124 18.5765 7.9464 18.6417 8.02466C18.7868 8.20083 19.0684 8.19085 19.1251 8.34009C19.1784 8.47971 18.8969 8.41745 18.7501 8.40356C18.4862 8.37671 18.422 8.12615 18.1758 8.02563C18.0368 7.96818 17.948 7.96776 17.8057 7.91724C17.5463 7.8289 17.4247 7.7128 17.1651 7.62915C17.0079 7.57924 16.7232 7.36552 16.7589 7.53052C16.7647 7.57042 16.7886 7.6014 16.7989 7.62524C16.8127 7.64941 16.877 7.73657 16.877 7.73657C16.879 7.73934 16.9654 7.85677 17.0049 7.88794C17.0426 7.9214 17.2097 8.05197 17.4493 8.18677C17.6865 8.32193 17.8946 8.5813 17.8946 8.5813C17.8993 8.5883 17.9671 8.68981 18.0001 8.76099C18.0354 8.84364 18.0102 8.8696 18.0665 8.98462C18.1182 9.0986 18.1439 9.12108 18.2149 9.19165C18.3897 9.3656 18.5737 9.33155 18.796 9.42603C18.8563 9.4527 18.8611 9.46177 18.9258 9.53345C18.9911 9.60482 18.9141 9.63599 18.9141 9.63599C18.9078 9.63768 18.665 9.70132 18.5069 9.68774C18.2994 9.67087 18.2056 9.60465 18.004 9.50024C17.8001 9.39695 17.6931 9.21202 17.6719 9.19946C17.6541 9.1871 17.604 9.13126 17.5655 9.10278C17.527 9.07443 17.4269 9.05294 17.338 9.02759C17.2479 9.00246 17.1974 8.9981 17.1075 8.9729C16.9847 8.93686 16.8569 8.88087 16.7989 8.86157C16.7411 8.84082 16.6091 8.81625 16.5128 8.87524C16.32 8.99352 16.8121 9.07266 16.9649 9.24243C17.0434 9.32761 17.0754 9.38805 17.1495 9.47778C17.2058 9.54683 17.2302 9.595 17.2999 9.64868C17.3464 9.68409 17.4317 9.72256 17.4346 9.72388C17.4346 9.72388 17.5531 9.78111 17.7266 9.88013C17.9001 9.97916 18.1036 10.259 18.1036 10.259L18.2266 10.4543L18.2989 10.5657L18.3184 10.6174L18.3448 10.6799C18.3448 10.6799 18.4339 10.8 18.4991 10.8391C18.5643 10.8798 18.5528 10.9153 18.5528 10.9153C18.552 10.9177 18.5425 10.9407 18.4991 10.9661C18.4547 10.9945 18.4293 10.9714 18.3643 10.9514C18.2991 10.9323 18.2556 10.8675 18.1993 10.8206C18.14 10.7714 18.0778 10.6527 17.9727 10.5852C17.8793 10.5269 17.7575 10.5059 17.71 10.4905C17.664 10.4728 17.5491 10.3981 17.503 10.3772C17.4586 10.3587 17.338 10.302 17.338 10.302C17.3352 10.3004 17.1065 10.168 16.9796 10.1321C16.8521 10.0951 16.9337 10.176 16.9337 10.176C16.9395 10.1854 17.0506 10.3621 17.1573 10.4338C17.2997 10.5313 17.4999 10.6176 17.4346 10.6965C17.3902 10.7477 17.3308 10.7296 17.2657 10.7219C17.159 10.7089 17.0294 10.5764 17.0294 10.5764C17.0253 10.5738 16.9671 10.5375 16.7374 10.4622C16.5007 10.3818 16.5878 10.5161 16.6426 10.5891C16.6939 10.6569 16.763 10.6972 16.7686 10.7004L16.9307 10.7756L17.0049 10.8C17.01 10.801 17.0787 10.8143 17.2852 10.8645C17.4999 10.9152 17.6182 11.0237 17.6182 11.0237C17.6203 11.0256 17.7359 11.1353 17.8946 11.2571C18.0576 11.3814 18.2178 11.4137 18.3067 11.426C18.3916 11.4371 18.3927 11.4962 18.3926 11.5012C18.3926 11.5012 18.4043 11.5612 18.3985 11.5803C18.3953 11.6001 18.3758 11.6165 18.3565 11.6165C18.3389 11.6166 18.3302 11.624 18.3067 11.637C18.283 11.6492 18.1905 11.6643 18.1905 11.6643C18.1793 11.6639 17.946 11.6559 17.7608 11.6086C17.5756 11.5614 17.4108 11.4278 17.3907 11.4182C17.376 11.4105 17.2007 11.3097 17.0792 11.2698C16.9628 11.2293 16.7757 11.2464 16.753 11.2542C16.7338 11.2618 16.6678 11.2731 16.5567 11.3069C16.446 11.3372 16.5817 11.381 16.585 11.3821L16.6651 11.3899L16.8565 11.4045C16.8565 11.4045 17.0552 11.4289 17.2227 11.4934C17.3902 11.5564 17.5002 11.6834 17.6114 11.8C17.7221 11.914 17.8449 11.989 17.8458 11.9895L17.9346 12.05L17.9805 12.0862L17.9923 12.1174C17.9919 12.1188 17.9876 12.1346 17.9805 12.1536C17.973 12.1743 17.9444 12.1897 17.9444 12.1897C17.9402 12.1889 17.9026 12.1819 17.8858 12.1819C17.865 12.1819 17.7389 12.1128 17.6456 12.0706C17.5493 12.0269 17.5001 11.9854 17.3966 11.9592C17.3079 11.9371 17.1895 11.9265 17.1622 11.9348C17.1356 11.9425 16.9394 11.971 16.7882 11.9817C16.6372 11.9939 16.5068 11.997 16.3292 11.9749C16.0757 11.9434 15.7385 11.7355 15.6954 11.7932C15.6082 11.9144 15.8755 11.9491 16.0059 12.0266C16.1839 12.1332 16.4923 12.2297 16.4923 12.2297C16.5035 12.2323 16.7201 12.2823 16.8487 12.345C17.1377 12.484 17.2255 12.6901 17.4581 12.9065C17.5855 13.0277 17.6897 13.0795 17.8614 13.1057C18.0097 13.1281 18.0072 13.1103 18.2413 13.0627C18.477 13.0144 18.6194 12.783 18.6876 12.8674C18.701 12.8836 18.6954 12.8992 18.6924 12.9231C18.6879 12.9469 18.668 12.9905 18.668 12.9905C18.6655 12.9941 18.6401 13.0322 18.6007 13.0745C18.5576 13.1182 18.3951 13.2093 18.3106 13.2454C18.2258 13.2815 18.0184 13.3407 17.7579 13.3323C17.5006 13.3246 17.1401 13.1231 17.1299 13.1174L16.8653 13.0022C16.8578 12.9985 16.7415 12.9426 16.6612 12.9114C16.4419 12.8254 16.3024 12.833 16.0772 12.7717C15.9379 12.7326 15.8458 12.6912 15.7198 12.6643C15.5923 12.636 15.665 12.6889 15.6768 12.7073C15.7361 12.7906 15.8163 12.8171 15.9171 12.8655C16.0505 12.933 16.144 12.9199 16.2803 12.9797C16.4327 13.0434 16.566 13.1329 16.6505 13.1897C16.7334 13.245 16.7965 13.3082 16.878 13.3958L17.1573 13.6448C17.1573 13.6448 17.2231 13.6998 17.2305 13.7229C17.2379 13.7468 17.2687 13.8066 17.254 13.9026C17.2376 13.9986 17.1622 13.9309 17.1622 13.9309L17.088 13.8821L17.0137 13.8108L16.8966 13.7112C16.8966 13.7112 16.7957 13.616 16.6221 13.5247C16.4543 13.434 16.2527 13.4095 16.2432 13.4084C16.2432 13.4084 16.0585 13.3808 16.0645 13.4407C16.0734 13.4996 16.1156 13.5051 16.2608 13.5442C16.4074 13.5834 16.504 13.6604 16.504 13.6604C16.5125 13.667 16.6569 13.779 16.7618 13.9026C16.8662 14.0274 16.8982 14.1485 16.8995 14.1536C16.8995 14.1536 16.9539 14.2586 17.0919 14.3967C17.2296 14.5362 17.3022 14.4877 17.295 14.5549C17.288 14.619 17.2333 14.6337 17.2276 14.635C17.2276 14.635 17.1916 14.6321 17.1768 14.6321C17.162 14.6321 17.1265 14.6113 17.088 14.5959C17.05 14.5808 16.9088 14.479 16.9044 14.4758C16.9044 14.4758 16.6757 14.2843 16.6505 14.2659C16.6222 14.2451 16.4073 14.0784 16.4073 14.0784C16.4037 14.076 16.2787 13.9935 16.1895 13.9465C16.0962 13.8997 15.9731 13.8503 15.9034 13.8264C15.8352 13.8034 15.7071 13.7961 15.7071 13.7961C15.6995 13.795 15.552 13.7708 15.461 13.7356C15.3149 13.6773 15.1454 13.517 15.1251 13.5081C15.1042 13.4997 14.9672 13.4507 14.9405 13.4553C14.9137 13.4608 14.8517 13.7265 14.837 13.8801C14.7747 14.5267 14.9413 14.9563 15.1993 15.5491C15.5715 16.4104 16.6075 17.4817 16.6075 17.4817C16.6162 17.4868 16.8707 17.6361 16.9786 17.7258C17.2885 17.9769 17.801 18.3324 18.2559 18.802C18.6443 19.2051 19.1612 19.9202 19.1612 19.9202C19.1726 19.9367 19.4629 20.357 19.5997 20.6565C19.7681 21.0299 19.9044 21.5989 19.9053 21.6028C19.9053 21.6028 19.917 21.7013 19.9258 21.7229C19.9378 21.7427 19.9646 21.7688 19.9825 21.7688L20.1632 21.7747C20.182 21.7746 20.3874 21.7592 20.5235 21.7239C20.6586 21.6884 20.9791 21.5372 21.1924 21.4221C21.4008 21.3065 21.6514 21.0885 21.6563 21.0842C21.6563 21.0842 21.705 21.0407 21.9512 20.7551C22.2003 20.4696 22.3602 20.0411 22.421 19.8792C22.4803 19.7187 22.5299 19.4094 22.5655 18.8811C22.604 18.3507 22.5342 17.7913 22.5342 17.7913C22.5326 17.7772 22.4398 17.0086 22.3839 16.7454C22.3275 16.4813 22.1915 16.0481 22.1915 16.0481C22.1879 16.0337 22.0956 15.6588 22.0665 15.4202C22.0357 15.1802 22.0314 14.7915 22.0313 14.7805C22.0313 14.7805 22.031 14.5375 22.1065 14.0891C22.1841 13.6495 22.4418 13.2063 22.4493 13.1936C22.4493 13.1936 22.5239 13.0419 22.8087 12.6887C23.1005 12.3273 23.1939 12.2707 23.4815 12.0549C23.7099 11.8852 24.0051 11.6115 24.1016 11.676C24.2076 11.7452 23.9969 11.8832 23.9258 11.9553C23.7465 12.1396 23.4121 12.4657 23.1407 12.9563C22.9036 13.3809 22.8141 13.6616 22.7549 13.9387C22.6955 14.2152 22.7212 14.5196 22.7286 14.6233C22.7377 14.7264 22.7921 14.6887 22.7921 14.6887C22.8028 14.6798 23.3718 14.2056 23.6817 13.8459C24.0212 13.4529 24.3239 12.7534 24.4424 12.7473C24.5223 12.7425 24.5593 12.9292 24.5401 13.0159C24.4661 13.379 24.4406 13.4243 24.3262 13.6653C24.1958 13.9417 24.0746 14.0647 23.8936 14.3196C23.7038 14.5868 23.6107 14.6894 23.4581 15.0432C23.241 15.544 23.3623 15.9322 23.3663 15.9446C23.3663 15.9446 23.3925 16.1839 23.4962 16.1809C23.6698 16.1747 24.0507 15.6765 24.2999 15.2688C24.4839 14.9701 24.5508 14.6239 24.671 14.4426C24.7805 14.2835 24.8766 14.7049 24.8292 14.9534C24.7742 15.2488 24.633 15.5146 24.3233 15.9329C24.0211 16.3411 24.0303 16.7297 24.0303 16.7297C24.0297 16.7336 23.9987 16.9115 23.9737 17.2942C23.9501 17.6795 24.0567 18.2649 24.0567 18.2649C24.0594 18.2789 24.1518 18.7589 24.171 19.1243C24.1888 19.4974 24.1766 20.3447 23.8399 21.0042C23.7065 21.2682 23.421 21.634 23.421 21.634C23.4166 21.6387 23.1977 21.87 23.0186 22.0051C22.8375 22.1419 22.4034 22.3557 22.4034 22.3557C22.3949 22.3587 22.1015 22.4628 22.0606 22.4719C22.018 22.4838 21.9922 22.52 21.9903 22.5227C21.9918 22.526 22.0169 22.5838 22.0284 22.6077C22.0394 22.634 22.1231 22.8469 22.1231 22.8469C22.1256 22.8552 22.2145 23.154 22.2481 23.3918C22.2822 23.6328 22.2415 23.6882 22.2091 23.8723C22.1764 24.049 22.1024 23.9677 22.0831 24.3147C22.0668 24.6219 22.2006 24.7754 22.1768 25.1194C22.1666 25.2699 22.002 24.9288 21.9219 24.7844C21.753 24.471 21.793 23.9891 21.7901 23.8694C21.7856 23.7496 21.7763 23.6174 21.7335 23.467C21.6817 23.2707 21.603 23.119 21.5157 22.9993C21.4266 22.881 21.333 22.8132 21.3018 22.8254C21.2707 22.8362 21.2676 22.8992 21.2676 22.9299C21.2663 22.964 21.3285 23.0772 21.3419 23.1018C21.3579 23.1244 21.4649 23.3279 21.4688 23.3352C21.4688 23.3352 21.5179 23.4983 21.5372 23.8147C21.5565 24.1279 21.463 24.5178 21.463 24.5178C21.4597 24.5296 21.3396 24.9586 21.2139 25.2131C21.0728 25.4943 20.7622 25.8764 20.7559 25.884C20.7559 25.884 20.5291 26.0993 20.3585 26.4524C20.1911 26.8055 20.3349 26.9591 20.2725 27.0051C20.2073 27.0496 20.0738 26.8014 20.0382 26.634C20.004 26.4774 20.0207 26.4029 20.0831 26.2278C20.141 26.0589 20.2774 25.8147 20.2774 25.8147L20.4805 25.4573C20.4857 25.4471 20.7275 24.9679 20.8038 24.6184C20.8793 24.2749 20.7952 23.8931 20.7921 23.8792C20.7921 23.8792 20.7809 23.75 20.6964 23.7561C20.6106 23.761 20.5513 23.8375 20.5157 23.9309C20.4459 24.1243 20.5453 24.0892 20.4385 24.4114C20.3557 24.6647 20.3317 24.6312 20.2872 24.7815C20.2338 24.9612 20.206 25.1459 20.2091 25.2581C20.2132 25.3646 20.158 25.3252 20.1544 25.3225C20.1544 25.3225 20.0509 25.1227 20.0508 24.8743C20.0508 24.7391 20.0565 24.6619 20.0714 24.5266C20.0948 24.3128 20.1786 23.987 20.1807 23.9788C20.1807 23.9788 20.2732 23.6517 20.254 23.3538C20.2325 23.0603 20.1357 23.0001 20.1309 22.9973C20.1309 22.9973 20.104 22.9571 19.9913 22.9631C19.882 22.9723 19.8857 23.1733 19.8858 23.1799C19.8858 23.1799 19.8521 23.4762 19.8077 23.6604C19.6846 24.1686 19.5201 24.4362 19.2296 24.8645C18.9658 25.2513 18.6084 25.5924 18.4288 25.7522C18.2518 25.9141 17.7079 26.3241 17.7022 26.3284L17.0587 26.7717C17.0587 26.7717 16.8033 27.03 16.6876 27.3372C16.5691 27.6427 16.5755 27.8824 16.6436 28.1633C16.7119 28.4457 16.8096 28.5748 16.8614 28.6545C16.9118 28.7315 17.0115 28.8697 17.044 29.0325C17.0647 29.1321 17.0499 29.192 17.0557 29.2932C17.0618 29.3822 17.0733 29.4314 17.0704 29.5217C17.0674 29.663 17.0923 29.763 17.0137 29.8782C16.959 29.9631 16.8125 30.0379 16.8038 30.0422C16.8038 30.0422 16.6285 30.1226 16.5245 30.1887C15.4304 30.872 15.0416 31.3158 14.4249 32.0774C14.2295 32.3212 14.3731 32.3064 14.1641 32.595C14.0372 32.7668 13.7447 32.7674 13.6387 32.9729C13.4918 33.2538 13.9706 33.5304 13.4171 33.7776C12.7032 34.0969 11.4747 33.8675 11.4503 33.7678C11.3838 33.4945 11.6909 33.1779 11.7999 33.052C12.2993 32.4873 12.7454 32.4732 12.9092 32.0051C12.9448 31.9053 12.9311 31.8195 13.3292 31.5139C13.6089 31.3002 14.7252 30.4292 15.213 29.8489C15.3803 29.6494 15.5241 29.517 15.5967 29.302C15.6706 29.0841 15.5235 28.9475 15.5235 28.9475L15.3233 28.6096L14.9395 27.8987C14.9356 27.8895 14.7769 27.5184 14.6905 27.303C14.6005 27.0858 14.4342 26.5038 14.4327 26.4983C14.4327 26.4983 14.3101 25.9703 14.2891 25.6262C14.2521 25.0091 14.3331 24.6497 14.4903 24.051C14.6934 23.274 15.155 22.9479 15.3389 22.177C15.3924 21.9529 15.4038 21.5687 15.294 21.5872C15.1903 21.6071 15.1815 21.9097 15.1016 22.1125C14.8051 22.8772 14.4132 23.2121 14.1983 24.0042C14.0545 24.5401 13.9958 24.8585 13.9971 25.4143C13.9988 25.732 13.986 25.6739 14.0645 26.2249C14.0956 26.4274 14.1433 26.5367 14.2012 26.7346C14.2422 26.8744 14.3522 27.1343 14.3546 27.1399C14.3546 27.1399 14.5072 27.4885 14.5606 27.7327C14.5768 27.8172 14.597 27.8649 14.5909 27.9495C14.5806 28.0952 14.6062 28.1262 14.5382 28.2581C14.4536 28.4225 14.5052 28.519 14.2354 28.5803C13.9993 28.6316 13.521 28.4724 13.5049 28.467C13.5049 28.467 11.487 27.8342 10.1993 28.0168C9.9445 28.0522 9.80719 28.1494 9.55085 28.1448C9.31744 28.1416 9.19837 27.9524 8.96491 28.0247C8.91793 28.0386 8.90305 28.0737 8.86042 28.1028C8.51947 28.3484 8.77996 28.7569 7.8819 28.5452C7.33046 28.4146 6.66225 28.0647 6.77741 27.845C6.93229 27.5532 7.14022 27.5054 7.57624 27.3196C8.04229 27.1232 8.74158 27.1783 8.87995 27.1692C9.0482 27.1553 9.29006 27.0343 9.59089 27.0266C10.1004 27.0175 10.2002 27.0787 10.2042 27.0813L11.088 27.1633L12.7784 27.1848C12.7784 27.1848 13.0811 27.1616 13.2012 27.137C13.3229 27.1123 13.4188 26.8646 13.4854 26.7463C13.549 26.6321 13.4851 26.465 13.4825 26.4583L13.4317 26.3772L13.2706 26.1077L12.9737 25.5891L12.6436 24.9075C12.6436 24.9075 12.4285 24.4331 12.3135 24.1213C12.1993 23.8111 12.1324 23.6355 12.0567 23.3147C11.9775 22.9847 11.9284 22.7178 11.918 22.4524C11.9055 22.0711 11.8814 21.7739 11.9844 21.4622C11.9977 21.4303 12.2578 21.6012 12.3936 21.6838C12.6805 21.8619 12.81 21.9678 13.0635 22.1643C13.2644 22.3225 13.3619 22.4036 13.5635 22.5833C13.8109 22.8043 13.944 22.9932 14.0108 22.9504C14.1072 22.8307 13.8527 22.4805 13.628 22.2903C13.4095 22.103 13.184 21.9505 13.0098 21.8323C12.7852 21.6771 12.7646 21.6419 12.4288 21.4084C12.0743 21.1627 11.7679 20.855 11.7569 20.844L11.4053 20.5579L10.8565 20.0784L10.2462 19.4954L9.78425 18.9631C9.77316 18.9491 9.42559 18.5077 9.36921 18.4211C9.3114 18.3344 9.14223 18.0535 9.003 17.8157C8.87887 17.603 8.63823 17.2732 8.61432 17.2424C8.48383 17.0788 8.18522 17.145 7.83893 16.9338C7.41872 16.6766 7.31745 16.4407 7.31745 16.4407C7.31563 16.4367 7.30046 16.4052 7.28522 16.3879C7.26951 16.3687 7.23835 16.345 7.23835 16.345L7.01764 16.1868L6.89167 16.0999C6.88545 16.0946 6.79184 16.0163 6.67585 15.9651C6.55666 15.9105 6.29403 15.753 6.2862 15.7483L5.80475 15.4299C5.79709 15.4236 5.61571 15.2721 5.55475 15.2209C5.49105 15.171 5.37214 15.0999 5.37214 15.0999C5.3697 15.0986 5.29606 15.0603 5.2735 15.0588C5.25035 15.0572 5.15046 15.0481 5.15046 15.0481C5.14541 15.0468 5.05542 15.0267 4.96393 15.1379C4.86992 15.2529 4.89263 15.1915 5.04596 15.8391C5.10665 16.0938 5.10093 16.9924 5.16608 17.2668C5.24906 17.6185 5.48828 18.0735 5.51276 18.1272C5.53653 18.1804 5.5528 18.3772 5.5528 18.3772C5.5522 18.3868 5.54299 18.5386 5.55866 18.636C5.63133 19.1004 6.28802 18.7955 6.43268 19.4329C6.57485 20.0616 6.34675 20.6887 6.34675 20.6887C6.34241 20.6982 6.2031 21.0007 6.0069 21.0491C5.80827 21.0968 5.49955 20.6411 5.27643 20.2717C5.05641 19.9086 4.87629 19.4328 4.81843 19.2815C4.7606 19.1302 4.72983 19.0972 4.66315 18.9875C4.56458 18.824 4.48547 18.8538 4.37507 18.5959C4.26385 18.338 4.3622 18.2339 4.31257 18.009C4.28367 17.8848 4.25853 17.8707 4.22077 17.6926C4.18497 17.5179 4.13623 16.9675 4.13483 16.9514L4.0655 16.426C4.0655 16.426 4.04066 16.1859 4.00885 16.0354C3.89848 15.5104 3.86042 15.0022 3.86042 15.0022L3.83893 14.7932L3.8321 14.5774C3.83166 14.5699 3.82614 14.4701 3.84968 14.3674C3.87416 14.2608 3.92389 14.1721 3.92389 14.1721C3.92795 14.1651 4.02664 13.994 4.04401 13.9504C4.06135 13.9079 4.27057 13.6565 4.27057 13.6565C4.27617 13.6517 4.38471 13.5594 4.55866 13.4495C4.73309 13.3397 4.88985 13.3437 4.8985 13.344C4.8985 13.344 4.94637 13.3394 5.26374 13.3801C5.58072 13.4207 6.23211 13.5998 6.39753 13.6438C6.55983 13.6892 6.75496 13.7604 6.88093 13.8333C7.2431 14.0372 7.35278 13.9502 7.06452 13.7161C6.87042 13.5588 6.81557 13.4882 6.65925 13.3411C6.52725 13.2151 6.42285 13.1317 6.32428 13.0159C6.22671 12.8988 5.95111 12.4768 5.94538 12.468L5.7696 12.1995C5.7696 12.1995 5.67486 12.0891 5.65925 12.0813C5.6444 12.072 5.59675 12.0344 5.59675 12.0344C5.58843 12.0348 5.47605 12.0397 5.36042 12.0168C5.23905 11.9918 5.18268 12.1682 5.18268 12.1682C5.17585 12.1814 4.91807 12.6761 4.65632 12.9807C4.22641 13.482 3.91771 13.823 3.75983 14.0901C3.53831 14.46 3.58761 14.8656 3.4737 15.053C3.40701 15.1628 3.37038 15.1797 3.33405 15.2756C3.22334 15.5664 3.62662 15.7259 3.53425 16.0481C3.38669 16.5596 2.22977 17.0652 2.07624 16.9807C1.91762 16.8928 2.04732 16.202 2.10065 15.9788C2.15556 15.7539 2.31814 15.4224 2.33307 15.4055C2.34718 15.3892 2.38674 15.3112 2.3985 15.2454C2.41113 15.1794 2.4155 15.0295 2.42292 14.9465C2.43035 14.8628 2.46393 14.7307 2.46393 14.7307C2.46455 14.7277 2.47305 14.6913 2.57038 14.4729C2.67343 14.2418 3.04958 13.7044 3.3194 13.1917C3.49732 12.8569 3.57215 12.6542 3.75007 12.3186C3.91391 12.0108 4.1944 11.5403 4.1944 11.5403C4.19877 11.5315 4.31361 11.2997 4.36823 11.2122C4.42461 11.1207 4.54412 10.9481 4.65534 10.7776C4.76725 10.608 4.79452 10.4798 4.9405 10.3401C5.06104 10.2237 5.14341 10.1617 5.30085 10.1096C5.53582 10.029 5.69739 10.0718 5.93757 10.1409C6.18652 10.2114 6.35744 10.3303 6.52057 10.47C6.68099 10.6097 6.80104 10.7633 6.80378 10.7668L6.88288 10.8879L6.93171 10.9182L7.08307 11.0188L7.42975 11.2561C7.44448 11.2665 8.25139 11.8353 8.29694 11.8665C8.34075 11.8965 8.48874 12.0215 8.51764 12.0315C8.54982 12.0381 8.76838 11.7932 9.19538 11.4885C9.69165 11.1317 9.86769 11.1583 10.0323 11.0657C10.1946 10.9727 10.2621 10.896 10.3897 10.7639C10.5823 10.5644 10.5834 10.4573 10.8018 10.179C11.022 9.90106 11.2286 9.74438 11.2286 9.74438C11.2326 9.74006 11.2804 9.68842 11.6514 9.25415C12.0387 8.80132 12.2124 8.45732 12.2159 8.45044L12.4307 8.00415C12.4307 8.00415 12.7417 7.31058 12.8419 7.03638C12.9426 6.76173 12.9434 6.67017 12.9434 6.67017C12.9445 6.66415 12.9542 6.5919 12.8819 6.45825C12.8041 6.31982 12.7241 6.3828 12.5753 6.41431C12.29 6.47724 12.1165 6.4 11.8282 6.3479C11.5644 6.30251 11.4266 6.22038 11.1622 6.17505C10.8939 6.12824 10.737 6.08278 10.4678 6.10962C10.4271 6.1142 10.3452 6.13199 10.3057 6.14575C10.1537 6.19796 10.1108 6.21001 9.99811 6.27759C9.86791 6.34039 9.78203 6.36069 9.63776 6.3645C9.53762 6.3676 9.47647 6.36991 9.38385 6.33228C9.32024 6.30698 9.28378 6.28819 9.23346 6.24146C9.20311 6.21301 9.18716 6.1943 9.16413 6.15747C9.16122 6.1285 9.15234 6.1297 9.17975 6.08228C9.2055 6.03582 9.23715 6.02623 9.23932 6.02563L9.36237 5.99438C9.36237 5.99438 9.53321 5.94794 9.55182 5.94263C9.56744 5.93804 9.73316 5.8824 9.80573 5.85864C9.87759 5.83538 9.95576 5.79305 9.95905 5.79126C9.96005 5.78959 10.0029 5.71781 9.98639 5.67603C9.9649 5.62831 9.86628 5.62329 9.86628 5.62329C9.85987 5.62571 9.7281 5.67545 9.71296 5.67993C9.697 5.68341 9.4776 5.75513 9.4776 5.75513C9.46829 5.75724 9.30133 5.79538 9.17096 5.82739C9.03901 5.85811 8.85197 5.87455 8.84382 5.87524L8.78522 5.85864C8.77946 5.85455 8.71984 5.81107 8.71003 5.76587C8.70042 5.72376 8.69497 5.69202 8.68757 5.6438C8.65867 5.46731 8.62349 5.36072 8.66413 5.18677C8.67974 5.1138 8.69627 5.0726 8.72663 5.00513C8.7525 4.94915 8.76949 4.91647 8.8028 4.86353L8.90925 4.68384L9.10944 4.37817C9.17827 4.3061 9.22314 4.26963 9.30964 4.21899C9.43714 4.14533 9.51156 4.12418 9.67096 4.10571C9.82729 4.08806 9.84882 4.08981 10.0704 4.03833C10.2893 3.98711 10.4454 3.89811 10.4512 3.89478C10.4512 3.89478 10.985 3.69269 11.3096 3.52759C11.6496 3.355 11.7977 3.17028 12.1495 3.02759C12.2985 2.96771 12.3857 2.9393 12.5391 2.89868C12.5584 2.88561 12.5683 2.87273 12.5743 2.84888C12.5887 2.79153 12.5027 2.76468 12.4434 2.77075C12.39 2.7754 12.2687 2.8337 12.2413 2.77075C12.2205 2.72245 12.3526 2.6936 12.3526 2.6936C12.3583 2.69076 12.4145 2.66233 12.4161 2.62817C12.4176 2.57287 12.3261 2.60835 12.2852 2.60376C12.0788 2.5799 12.062 2.54114 11.919 2.50513C11.7511 2.46146 11.66 2.40741 11.4854 2.39966C11.3312 2.39347 11.186 2.42766 11.0889 2.45142C10.9935 2.4766 10.9906 2.37877 11.0284 2.35962C11.2988 2.22917 11.3049 2.21841 11.4962 2.20923C11.6004 2.20466 11.7459 2.22814 11.7628 2.23657C11.7784 2.24576 11.9877 2.23478 12.0411 2.17798C12.0956 2.12277 11.8695 2.12607 11.7628 2.08228C11.6643 2.0417 11.5137 2.0298 11.5167 1.96216C11.522 1.89477 11.5947 1.93197 11.6466 1.91821C11.7117 1.90204 11.7498 1.90396 11.8165 1.89478C11.9366 1.87791 11.9472 1.8661 12.1251 1.85083C12.2982 1.83353 12.5465 1.90917 12.5538 1.91138C12.5538 1.91138 12.8197 2.03339 12.9503 2.0979C13.0808 2.16079 13.2393 2.1936 13.2393 2.1936C13.2476 2.19474 13.4278 2.21837 13.5655 2.12915C13.7083 2.03859 13.6279 1.97836 13.5782 1.89478C13.5292 1.81642 13.4666 1.70256 13.5577 1.48755C13.6384 1.30026 13.6811 1.08172 13.7042 1.06177ZM12.168 33.0432C12.0926 33.0892 12.051 33.1049 11.9815 33.2043C11.9691 33.222 11.8952 33.3211 11.8819 33.3469C11.8683 33.3723 11.7943 33.5179 11.9454 33.5286C12.2054 33.5438 12.0353 33.3716 12.1241 33.304C12.1966 33.252 12.3324 33.2653 12.3341 33.2102C12.3355 33.1551 12.3008 33.1077 12.3008 33.1077C12.3008 33.1077 12.2435 32.9974 12.168 33.0432ZM13.5372 31.6907C13.468 31.7288 13.394 31.8258 13.3868 31.8381C13.3802 31.852 13.3426 31.9045 13.3682 31.9504C13.3942 31.9966 13.4828 31.929 13.4962 31.926C13.5097 31.9252 13.6241 31.8313 13.6241 31.8313C13.6274 31.8291 13.6892 31.7853 13.6495 31.6926C13.647 31.6906 13.6039 31.6568 13.5372 31.6907ZM15.6749 29.9514C15.6451 29.9238 15.5755 29.9667 15.5176 29.9944C15.4674 30.022 15.4378 30.051 15.3995 30.0833C15.3642 30.1168 15.2444 30.2441 15.2423 30.2463L14.9278 30.5627L14.7286 30.7561L14.5362 30.9465L14.4561 31.0413C14.4561 31.0413 14.4359 31.0773 14.4298 31.0872C14.4237 31.0978 14.4024 31.1262 14.4024 31.1262C14.3991 31.1295 14.3733 31.1556 14.3731 31.1643L14.3555 31.2131C14.3555 31.2131 14.3318 31.2384 14.3526 31.2551C14.3737 31.2739 14.4026 31.2523 14.4053 31.2502C14.4053 31.2502 14.813 30.9206 15.0548 30.6887C15.3098 30.44 15.6778 30.011 15.6778 30.011C15.6791 30.0093 15.7022 29.9783 15.6749 29.9514ZM16.7227 29.4729C16.7197 29.4713 16.6781 29.4516 16.5997 29.4827C16.5212 29.5142 16.5253 29.5975 16.5255 29.6008C16.5255 29.6008 16.509 29.6931 16.5743 29.7024C16.6393 29.7146 16.745 29.5506 16.7462 29.5305C16.7462 29.512 16.7227 29.4729 16.7227 29.4729ZM7.67682 27.4504C7.67682 27.4504 7.52129 27.4902 7.50885 27.5452C7.49626 27.6033 7.60003 27.6594 7.61628 27.6624C7.63479 27.6657 7.66968 27.7073 7.7735 27.634C7.87309 27.5644 7.8723 27.5048 7.87214 27.5012C7.87214 27.5012 7.93266 27.4275 7.67682 27.4504ZM10.9952 27.3333C10.9912 27.3323 10.9339 27.3198 10.9102 27.3596C10.888 27.3979 10.9694 27.4868 11.0421 27.51C11.4385 27.6374 11.4601 27.6159 11.7296 27.6204C11.8801 27.622 11.9646 27.6071 12.1143 27.5979C12.3039 27.5828 12.392 27.6127 12.5987 27.5559C12.6527 27.542 12.7046 27.4386 12.628 27.4368C12.4256 27.4352 12.4888 27.4414 12.3643 27.4475C12.1384 27.4598 12.0151 27.4502 11.7921 27.4348C11.4791 27.4133 10.9952 27.3333 10.9952 27.3333ZM10.1085 27.3118C9.99646 27.318 9.9729 27.3393 9.96979 27.3577C9.96613 27.3745 9.97538 27.4041 10.0753 27.4133C10.1769 27.4195 10.2178 27.4127 10.2208 27.3635C10.2204 27.3585 10.2139 27.3043 10.1085 27.3118ZM13.8536 27.0149C13.7728 27.0553 13.7223 27.145 13.7198 27.1497C13.7198 27.1497 13.6809 27.2144 13.7647 27.2053C13.8463 27.193 13.9202 27.1561 13.9395 27.1438C13.9614 27.1307 14.0213 27.0726 13.9786 27.0208C13.9767 27.0186 13.9355 26.973 13.8536 27.0149ZM15.0049 24.3245C15.1798 23.9315 14.7696 24.0755 14.6671 24.5881C14.6167 24.8291 14.6758 25.3222 14.7559 25.4192C14.9514 25.6632 14.8315 25.0377 14.8594 24.8176C14.8831 24.6136 14.9071 24.5424 15.0049 24.3245ZM19.2364 22.2756C19.2324 22.2768 19.0909 22.3213 19.088 22.468C19.0852 22.6168 19.1236 22.7457 19.1192 22.925C19.1163 23.1539 18.9135 23.4181 19.044 23.5042C19.2676 23.6508 19.4603 22.615 19.3926 22.4602C19.3244 22.3065 19.2571 22.2739 19.2364 22.2756ZM23.2051 18.1057C23.2051 18.1057 23.1429 18.0222 23.1046 18.1321C23.1102 18.2256 23.1212 18.3017 23.1221 18.3079L23.1426 19.2014C23.1421 19.2101 23.1144 19.6554 22.9678 20.1145C22.7187 20.8977 22.0573 21.247 21.961 21.5295C21.7965 21.9973 22.5395 21.3999 22.9649 20.8303C23.3204 20.3575 23.3544 19.9177 23.3751 19.2991C23.3911 18.8523 23.2289 18.1661 23.2266 18.1565L23.2051 18.1057ZM5.5655 20.2014C5.53761 20.2622 5.71735 20.5298 5.71979 20.5334C5.71979 20.5334 5.77603 20.6218 5.86237 20.5823C5.94557 20.5404 5.91825 20.4456 5.91706 20.4417C5.91706 20.4417 5.85987 20.3156 5.78229 20.2942C5.77862 20.2912 5.59439 20.1413 5.5655 20.2014ZM15.9376 19.804C16.2602 19.5685 15.7065 19.4776 15.4366 19.7776C15.2232 20.0131 15.1469 20.3146 15.2696 20.5403C15.3896 20.7597 15.4273 20.2199 15.5606 20.0608C15.6763 19.9217 15.7478 19.9437 15.9376 19.804ZM9.5362 17.3538C9.38722 17.495 10.5824 19.0908 11.5587 19.8694C11.9271 20.1634 12.6145 20.7183 12.5596 20.5403C12.5277 20.4343 11.6353 19.6321 10.8673 18.7737C10.149 17.9685 9.65925 17.2378 9.5362 17.3538ZM14.21 14.7395C14.0636 14.7154 14.0682 14.9462 14.0889 15.1096C14.1869 15.8419 14.504 16.4064 14.9278 16.9377C15.1858 17.2616 15.8925 17.8383 15.9747 17.7463C16.0045 17.7133 15.3014 17.1502 14.8536 16.427C14.5364 15.9142 14.3672 15.48 14.3272 15.0569C14.323 15.0023 14.3342 14.7602 14.21 14.7395ZM4.36921 15.7678C4.36452 15.7667 4.3209 15.7581 4.30475 15.8147C4.28693 15.8746 4.28807 15.972 4.27546 16.0901C4.26524 16.1815 4.29832 16.4237 4.29889 16.428C4.29889 16.428 4.31678 16.6235 4.35456 16.7395C4.39539 16.8669 4.50397 17.0481 4.50397 17.0481C4.50672 17.0542 4.54625 17.1402 4.59479 17.136C4.64443 17.1306 4.63288 17.0696 4.63288 17.0696C4.62853 17.0517 4.47514 16.4209 4.47077 16.3557C4.45265 16.1454 4.45223 15.8907 4.45221 15.8782L4.45026 15.8381C4.45002 15.833 4.44521 15.7693 4.36921 15.7678ZM2.38874 16.1086C2.28389 16.0773 2.26614 16.2905 2.25202 16.3596C2.2402 16.4285 2.29897 16.5665 2.32331 16.5667C2.34696 16.5651 2.4302 16.4303 2.43464 16.3645C2.43915 16.2972 2.48085 16.1389 2.38874 16.1086ZM5.83893 14.9631C5.8058 14.9645 5.79955 14.9819 5.77839 15.0002C5.66119 15.1091 5.9406 15.1388 6.11042 15.2317C6.28253 15.3247 6.70348 15.6693 6.90436 15.7073C7.10444 15.7448 7.00007 15.5823 7.00007 15.5823L6.91803 15.51C6.91803 15.51 6.72515 15.37 6.60651 15.2971C6.48798 15.2251 6.32101 15.1513 6.31061 15.1467C6.29534 15.1418 6.00209 15.0169 5.99616 15.0139C5.98818 15.0083 5.87401 14.9618 5.83893 14.9631ZM2.88483 14.384C2.83015 14.3335 2.79851 14.4739 2.67878 14.5774C2.67878 14.5774 2.58264 14.7692 2.62995 14.8743C2.67601 14.9783 2.80243 14.7133 2.80573 14.7063C2.80573 14.7063 2.93828 14.4342 2.88483 14.384ZM4.61237 13.7913C4.61237 13.7913 4.52516 13.7744 4.44538 13.9465C4.36503 14.1207 4.38237 14.1915 4.38971 14.1995C4.39568 14.2071 4.45948 14.2058 4.56159 14.0442C4.66273 13.8843 4.63971 13.8225 4.63971 13.8225C4.63907 13.8194 4.63244 13.7915 4.61237 13.7913ZM8.63483 12.7844C8.63483 12.7844 8.74591 12.63 8.55768 12.7161C8.48106 12.7518 8.27236 12.9164 8.12507 13.219C8.00045 13.4769 7.75482 13.9488 7.80378 13.9895C7.85105 14.029 8.07057 13.5959 8.25397 13.3215C8.38628 13.1243 8.62559 12.7971 8.63483 12.7844ZM6.27839 12.0999C6.27839 12.0999 6.23126 12.2686 6.42096 12.4788C6.61187 12.6897 6.66082 12.8632 6.78229 12.7375C6.81561 12.703 6.66402 12.4191 6.58698 12.3401C6.50779 12.2618 6.45124 12.1975 6.45124 12.1975L6.40143 12.1555L6.33796 12.1184L6.30182 12.1038C6.30182 12.1038 6.29167 12.0938 6.27839 12.0999ZM4.62311 11.5071C4.62311 11.5071 4.53958 11.4757 4.43659 11.636C4.33425 11.7957 3.87371 12.5214 3.95514 12.6282C4.05216 12.754 4.45144 11.9809 4.57331 11.8362C4.69375 11.6926 4.64752 11.5481 4.64557 11.5422C4.64557 11.5422 4.64451 11.5088 4.62311 11.5071ZM15.0919 12.1604C15.0919 12.1604 15.0337 12.1477 14.9952 12.1731C14.9612 12.1948 14.9691 12.2131 14.9708 12.2161C14.9708 12.2161 15.0274 12.2639 15.0704 12.2717C15.1132 12.2779 15.203 12.3184 15.1993 12.2883C15.1964 12.2545 15.1453 12.1961 15.129 12.1799C15.1127 12.1658 15.0947 12.1611 15.0919 12.1604ZM11.6299 11.3596C10.9797 11.268 10.5495 11.5532 10.5382 11.5608L10.5167 11.5852C10.5116 11.5895 10.4575 11.6376 10.4835 11.7122C10.5117 11.79 10.6235 11.7354 10.629 11.7327C10.629 11.7327 10.8937 11.6292 11.171 11.6184C11.4436 11.6064 11.8198 11.6885 11.8341 11.6917C11.8341 11.6917 12.0184 11.7438 12.0489 11.7561C12.0794 11.7693 12.1793 11.8194 12.1964 11.8254C12.2117 11.8326 12.3072 11.8801 12.3604 11.8303C12.4121 11.7786 12.0251 11.4148 11.6299 11.3596ZM15.2794 11.6858C15.2758 11.6849 15.2219 11.672 15.1846 11.6956C15.1461 11.7209 15.1583 11.7424 15.1583 11.7424C15.163 11.7461 15.2191 11.7892 15.2589 11.7952C15.3002 11.8036 15.3913 11.844 15.3878 11.8118C15.3849 11.7803 15.3328 11.7217 15.3165 11.7063C15.297 11.6902 15.2794 11.6858 15.2794 11.6858ZM15.4717 11.1858C15.4717 11.1858 15.4064 11.1692 15.3604 11.1975C15.3169 11.2268 15.3295 11.2492 15.3301 11.2502C15.3301 11.2502 15.3984 11.3053 15.4473 11.3147C15.4963 11.3223 15.6035 11.3699 15.5977 11.3313C15.593 11.2952 15.534 11.2274 15.5147 11.2083C15.4951 11.1909 15.4741 11.1863 15.4717 11.1858ZM15.6231 10.6516C15.6173 10.6503 15.5385 10.6331 15.4874 10.6663C15.4341 10.7003 15.4459 10.7278 15.4473 10.7307C15.4473 10.7307 15.5322 10.7996 15.5928 10.8088C15.6536 10.8189 15.7833 10.8778 15.7774 10.8313C15.7729 10.7861 15.7005 10.7022 15.6739 10.6799C15.6502 10.6572 15.6231 10.6516 15.6231 10.6516ZM5.66022 10.4885C5.65312 10.4899 5.45375 10.5306 5.40436 10.6321C5.35418 10.735 5.64167 10.6721 5.64167 10.6721C5.65198 10.6726 5.83161 10.6805 5.836 10.6077C5.84033 10.5314 5.81173 10.5237 5.66022 10.4885ZM15.7549 10.1917C15.7549 10.1917 15.6745 10.1723 15.6182 10.2083C15.5653 10.2426 15.5801 10.2727 15.5801 10.2727C15.5838 10.2756 15.6654 10.3396 15.7247 10.3489C15.7852 10.3603 15.9151 10.4177 15.9102 10.3733C15.9057 10.3281 15.8329 10.2422 15.8077 10.22C15.7841 10.1987 15.7581 10.1924 15.7549 10.1917ZM13.7813 8.88501C14.0244 8.44731 14.1299 7.42855 13.921 7.68188C13.8268 7.79844 13.7129 8.32593 13.5323 8.71704C13.2743 9.27443 12.7237 10.0647 12.7237 10.0647C12.7195 10.0741 12.6085 10.3238 12.7989 10.1741C12.7989 10.1741 13.3714 9.61896 13.7813 8.88501ZM15.8741 9.6272C15.8673 9.62577 15.7833 9.60919 15.7237 9.64673C15.6647 9.68576 15.6827 9.71704 15.6827 9.71704C15.6886 9.72174 15.7775 9.79285 15.8419 9.80396C15.9082 9.81469 16.0544 9.88005 16.0489 9.82837C16.0429 9.77861 15.9603 9.68575 15.9337 9.6604C15.9056 9.63511 15.8741 9.6272 15.8741 9.6272ZM15.9796 9.01196C15.9769 9.01131 15.8689 8.98576 15.796 9.03345C15.7248 9.0791 15.7446 9.11564 15.7462 9.11841C15.7462 9.11841 15.8586 9.21163 15.9385 9.22388C16.02 9.23789 16.1925 9.31432 16.1866 9.25317C16.1773 9.19174 16.0818 9.08083 16.0479 9.05103C16.0153 9.0197 15.9796 9.01196 15.9796 9.01196ZM16.046 8.36938C16.046 8.36938 15.9121 8.33945 15.8233 8.39771C15.7381 8.45292 15.76 8.49788 15.7618 8.50122C15.7618 8.50122 15.8975 8.61296 15.9952 8.62915C16.0943 8.64449 16.3058 8.73939 16.2969 8.66431C16.2877 8.59093 16.1707 8.45612 16.129 8.41821C16.0906 8.38222 16.0493 8.37026 16.046 8.36938ZM16.1378 7.65845C16.1378 7.65845 15.9865 7.62238 15.8799 7.6897C15.7779 7.7555 15.8096 7.80981 15.8096 7.80981C15.8191 7.8174 15.9709 7.93833 16.0811 7.9563C16.1936 7.97542 16.4397 8.08351 16.4307 7.99927C16.4189 7.9129 16.2829 7.75662 16.2354 7.71411C16.1891 7.67214 16.1399 7.65898 16.1378 7.65845ZM16.1407 6.94653C16.1407 6.94653 16.0088 6.91761 15.92 6.97485C15.8338 7.02902 15.8527 7.07451 15.8546 7.07837C15.8546 7.07837 15.9942 7.18839 16.0919 7.20532C16.1897 7.2216 16.4005 7.31594 16.3917 7.24243C16.3813 7.16814 16.2646 7.0314 16.2247 6.99536C16.1852 6.95978 16.1443 6.94757 16.1407 6.94653ZM16.1544 6.21802C16.1544 6.21802 16.0225 6.18724 15.9337 6.24536C15.8478 6.3007 15.8689 6.34563 15.8712 6.34985C15.8712 6.34985 16.0078 6.46085 16.1055 6.47778C16.2049 6.49414 16.416 6.58711 16.4073 6.51294C16.3981 6.43953 16.2799 6.30405 16.2383 6.26782C16.2017 6.23124 16.1583 6.21898 16.1544 6.21802ZM14.294 5.95044C14.0457 6.21294 13.4124 6.26662 13.4219 6.30884C13.4345 6.35071 13.98 6.33697 14.1173 6.29419C14.2255 6.26345 14.2852 6.0647 14.2852 6.0647C14.289 6.05455 14.3486 5.89397 14.294 5.95044ZM14.0938 5.58032C13.9096 5.89211 13.491 6.02379 13.5089 6.06372C13.5277 6.10253 13.8495 6.01174 13.9737 5.9397C14.0706 5.883 14.1085 5.69263 14.1085 5.69263C14.1096 5.68457 14.1342 5.51077 14.0938 5.58032ZM16.1016 5.62915C16.1016 5.62915 15.9803 5.60062 15.8975 5.65259C15.8147 5.70387 15.8399 5.74536 15.8399 5.74536C15.8464 5.7504 15.9675 5.84395 16.0567 5.85767C16.1469 5.8722 16.343 5.95484 16.3341 5.88892C16.3265 5.82326 16.2175 5.70473 16.1788 5.67212C16.1446 5.63949 16.1045 5.62981 16.1016 5.62915ZM13.4981 5.2063C13.6285 4.94685 13.1397 5.4759 12.8907 5.61255C12.7387 5.69548 12.4913 5.80591 12.4913 5.80591C12.4901 5.80747 12.4273 5.89067 12.5176 5.88306C12.609 5.87705 12.8412 5.95824 13.0294 5.80786C13.0733 5.77139 13.2622 5.48545 13.2686 5.47583C13.2686 5.47583 13.4358 5.32908 13.4981 5.2063ZM10.6358 5.44849C10.6232 5.33779 10.4591 5.42603 10.4591 5.42603C10.457 5.42637 10.3738 5.44091 10.3936 5.54712C10.4137 5.65242 10.4698 5.63599 10.4698 5.63599C10.4788 5.63191 10.6454 5.55509 10.6358 5.44849ZM9.22077 4.85278C9.22077 4.85278 9.12863 4.85728 9.06354 4.97583C9.00157 5.0909 8.96381 5.21019 8.96198 5.21606C8.96198 5.21606 8.93132 5.37114 8.98444 5.42017C9.03848 5.46836 9.09826 5.31924 9.17585 5.26099C9.22209 5.22679 9.25099 5.21115 9.29889 5.17603C9.36469 5.12945 9.47204 5.18912 9.46491 5.052C9.4554 4.91338 9.31327 4.84671 9.22077 4.85278ZM16.0635 5.02271C16.0581 5.0216 15.9476 5.00011 15.8712 5.04419C15.7977 5.08664 15.814 5.12131 15.8155 5.12427C15.8184 5.1263 15.9378 5.20914 16.0225 5.22192C16.1083 5.23427 16.2906 5.30577 16.2842 5.24927C16.2769 5.19261 16.1728 5.08712 16.1387 5.05884C16.1047 5.03049 16.0635 5.02271 16.0635 5.02271ZM15.8272 4.2395C15.7205 4.23811 15.585 4.12562 15.5538 4.24341C15.5252 4.35744 15.5081 4.39973 15.5069 4.40259C15.5069 4.40259 15.4476 4.64315 15.6817 4.55493C15.9158 4.46586 15.7946 4.50311 15.963 4.41821C16.1291 4.33378 16.1265 4.38077 16.2481 4.38696C16.2896 4.38846 16.3166 4.38938 16.379 4.3772C16.4318 4.36462 16.4094 4.30079 16.2911 4.26782C16.1637 4.23329 16.008 4.2411 15.8272 4.2395ZM11.9864 3.62817C11.9864 3.62817 12.0881 3.43272 11.8985 3.59302C11.8391 3.64213 11.6447 3.78404 11.4698 3.88306C11.1509 4.06187 10.5977 4.21899 10.5977 4.21899C10.5971 4.22035 10.5742 4.27579 10.6446 4.26978C11.118 4.23055 11.2988 4.16911 11.5508 4.05396C11.802 3.94151 11.9852 3.63018 11.9864 3.62817ZM12.9805 3.62134C12.9715 3.62167 12.825 3.62814 12.71 3.6936C12.5901 3.76117 12.5606 3.85767 12.5606 3.85767C12.559 3.86223 12.537 3.9278 12.5528 3.96411C12.5877 4.04611 12.7524 3.92154 12.8673 3.96216C12.9597 3.99665 13.0042 4.02541 13.0753 4.11353C13.1374 4.19028 13.2463 4.30097 13.3145 4.23853C13.3826 4.17913 13.3609 4.02941 13.3594 4.01978C13.3594 4.01978 13.2779 3.76284 13.1719 3.69067C13.0652 3.61724 12.9805 3.62134 12.9805 3.62134ZM13.2091 3.36646C13.201 3.36527 13 3.33742 13.0079 3.41919C13.0155 3.49695 13.1216 3.45025 13.1895 3.48169C13.256 3.51302 13.3004 3.52586 13.3536 3.57642C13.3925 3.61244 13.3885 3.68235 13.4366 3.68384C13.4997 3.68529 13.4903 3.65989 13.4893 3.65747C13.4893 3.65747 13.4287 3.47001 13.3497 3.41724C13.2713 3.36375 13.2091 3.36646 13.2091 3.36646ZM15.6563 3.35571C15.6563 3.35571 15.5496 3.32998 15.4757 3.3772C15.4032 3.4239 15.4249 3.46216 15.4249 3.46216C15.4257 3.46284 15.5362 3.5534 15.6173 3.56567C15.6972 3.58021 15.8692 3.65621 15.8633 3.59497C15.8543 3.53535 15.7599 3.42498 15.7257 3.39478C15.694 3.36683 15.6606 3.35692 15.6563 3.35571ZM15.3135 2.62427C15.3135 2.62427 15.2054 2.59995 15.1329 2.64673C15.0604 2.69423 15.0811 2.73169 15.0811 2.73169C15.0858 2.73537 15.1954 2.82088 15.2735 2.83521C15.3535 2.8476 15.5244 2.92417 15.5186 2.8645C15.5107 2.80317 15.415 2.6941 15.3809 2.66431C15.3516 2.63447 15.317 2.62512 15.3135 2.62427ZM12.8135 1.05884C12.8629 1.06659 12.8902 1.12623 12.9249 1.18188C13.0887 1.44141 13.1457 1.48815 13.2569 1.677C13.3205 1.78495 13.3774 1.89771 13.3399 1.99048C13.3021 2.08181 13.1678 2.00278 13.0626 1.97583C12.9494 1.94588 12.9053 1.89893 12.795 1.83911C12.6823 1.78012 12.609 1.69494 12.6016 1.62427C12.5946 1.55244 12.706 1.48022 12.7491 1.37329C12.7927 1.2573 12.8135 1.05884 12.8135 1.05884Z" fill="white"/>
</svg>
