<svg width="26" height="35" viewBox="0 0 26 35" fill="none" xmlns="http://www.w3.org/2000/svg">
<path d="M15.3486 34.3711H11.25V32.3887H15.3486V34.3711ZM16.5479 31.7236H10.0469V30.4521H16.5479V31.7236ZM16.5146 26.9004C15.6382 27.6222 15.3535 28.6997 15.3535 29.7881H11.2549C11.2435 28.6996 10.9704 27.6222 10.0938 26.9004H16.5146ZM8.92383 26.9004C8.29764 27.5076 7.36394 28.0005 6.4873 28.1953C6.43038 27.7599 6.38505 27.3243 6.32812 26.9004H8.92383ZM20.2715 26.9004C20.2146 27.3243 20.1578 27.7599 20.1123 28.1953C19.2356 28.0005 18.2902 27.5076 17.6641 26.9004H20.2715ZM21.5703 26.2363H5.03906V25.2852H21.5703V26.2363ZM20.7773 24.792H5.82812V23.8525H20.7773V24.792ZM21.5703 23.3604H5.03906V22.4092H21.5703V23.3604ZM13.3018 0.628906C13.7116 3.22971 14.8053 5.73894 16.0918 7.9502C15.6364 7.74396 15.1464 7.52602 14.6113 7.29688C14.1561 7.07935 13.9623 7.20547 13.9736 7.68652C14.133 12.384 14.8165 17.7234 17.2529 21.7793H14.3838C13.9284 20.7023 13.575 19.6361 13.3018 18.582C13.0285 19.6361 12.6647 20.7023 12.2207 21.7793H9.35156C11.788 17.7234 12.4715 12.384 12.6309 7.68652C12.6422 7.20539 12.4482 7.0792 11.9814 7.29688C11.4463 7.52602 10.9681 7.74397 10.5127 7.9502C11.7878 5.73896 12.8805 3.22969 13.3018 0.628906ZM1.42188 8.46582C3.30037 9.48553 5.30433 11.1121 7.45605 13.3232C6.55662 13.0826 5.66832 12.8992 4.78027 12.7617C6.0212 15.7176 7.04594 18.7308 7.97949 21.7783H5.56641C4.74669 16.8978 3.16369 11.8113 1.42188 8.46582ZM25.1641 8.46582C23.4222 11.8113 21.8396 16.8978 21.0312 21.7783H18.6172C19.5507 18.7308 20.5755 15.7176 21.8164 12.7617C20.9284 12.8992 20.0287 13.0826 19.1406 13.3232C21.2924 11.112 23.2969 9.48552 25.1641 8.46582Z" fill="white"/>
</svg>
